<?xml version="1.0" standalone="no"?>
<svg xmlns="http://www.w3.org/2000/svg" style="isolation:isolate"
	 viewBox="0 0 492.957 985.334" width="492.957" height="985.334">
	<defs>
		<clipPath id="_clipPath_ZItC6QT52KgJJKiGfN7crbXzWgs2MqBi">
			<rect width="492.957" height="985.334"/>
		</clipPath>
	</defs>
	<g clip-path="url(#_clipPath_ZItC6QT52KgJJKiGfN7crbXzWgs2MqBi)">
		<rect x="242.636" y="239.968" width="12.865" height="370.467" transform="matrix(1,0,0,1,0,0)"
			  fill="rgb(0,152,0)"/>
		<path d=" M 465.97 309.544 L 411.319 384.508 C 371.478 420.901 306.279 426.039 253.919 446.808 L 298.932 364.376 C 337.102 322.885 408.792 322.308 465.972 309.544 L 465.97 309.544 Z "
			  fill="rgb(0,152,0)"/>
		<path d=" M 452.3 318.544 L 405.09 382.251 C 370.674 413.178 314.35 417.545 269.12 435.195 L 308.004 365.143 C 340.977 329.883 402.902 329.393 452.304 318.545 L 452.3 318.544 Z "
			  fill="none" stroke-width="3.321" stroke="rgb(255,255,255)"
			  stroke-linejoin="miter" stroke-linecap="butt" stroke-miterlimit="4"/>
		<path d=" M 37.75 371.094 L 91.078 444.244 C 129.954 479.756 193.578 484.77 244.668 505.035 L 200.745 424.599 C 163.499 384.113 93.545 383.55 37.745 371.094 L 37.75 371.094 Z "
			  fill="rgb(0,152,0)"/>
		<path d=" M 51.09 379.884 L 97.157 442.048 C 130.74 472.227 185.701 476.488 229.837 493.71 L 191.895 425.354 C 159.721 390.948 99.295 390.47 51.095 379.884 L 51.09 379.884 Z "
			  fill="none" stroke-width="3.321" stroke="rgb(255,255,255)"
			  stroke-linejoin="miter" stroke-linecap="butt" stroke-miterlimit="4"/>
		<path d=" M 42.42 666.124 C 137.374 979.274 137.374 983.314 137.374 983.314 L 373.754 985.334 L 450.526 668.144 L 42.426 666.124 L 42.42 666.124 Z "
			  fill="rgb(252,112,112)"/>
		<path d=" M 0 559.054 L 22.223 666.134 L 468.713 670.175 L 492.957 559.055 L 0.007 559.055 L 0 559.054 Z "
			  fill="rgb(255,170,86)"/>
		<path d=" M 16.67 568.584 L 471.71 568.584 L 458.651 658.499 L 445.592 658.499 L 372.263 969.209 L 144.243 970.208 L 48.815 655.508 L 35.756 656.507 L 16.67 568.59 L 16.67 568.584 Z "
			  fill="none" stroke-width="2.5" stroke="rgb(255,255,255)"
			  stroke-linejoin="miter" stroke-linecap="butt" stroke-miterlimit="4"/>
		<path d=" M 221.85 0 C 246.525 20.529 227.966 53.244 207.036 86.141 C 169.37 60.717 127.621 38.815 104.096 32.652 C 165.207 55.891 146.137 158.832 169.619 218.612 C 171.937 228.195 177.016 236.2 183.939 242.736 C 201.197 262.839 216.091 271.187 238.447 267.76 C 265.818 273.27 283.02 263.734 303.59 239.14 C 350.688 182.833 312.928 40.8 388.979 11.88 C 362.184 18.9 313.716 44.616 271.269 73.896 C 256.76 42.423 238.506 11.213 221.851 0.004 L 221.85 0 Z "
			  fill-rule="evenodd" fill="rgb(255,85,85)"/>
		<path d=" M 242.636 38 C 241.304 64.233 228.267 76.657 212.432 103.402 C 183.933 82.732 155.172 62.011 137.374 57 C 183.612 75.893 166.357 162.496 184.124 211.096 C 185.878 218.887 189.721 225.394 194.959 230.709 C 208.017 247.052 219.286 253.839 236.2 251.053 C 256.909 255.533 269.924 247.78 285.488 227.785 C 321.123 182.008 292.554 66.545 350.094 43.025 C 329.82 48.732 293.149 69.639 261.03 93.443 C 250.052 67.856 241.304 64.233 242.636 37.999 L 242.636 38 Z "
			  fill="none" stroke-width="3.463" stroke="rgb(255,255,255)"
			  stroke-linejoin="miter" stroke-linecap="butt" stroke-miterlimit="4"/>
	</g>
</svg>